<?xml version="1.0" encoding="UTF-8"?>
<svg id="pointer-icon" data-name="pointer-icon" xmlns="http://www.w3.org/2000/svg" viewBox="0 0 217.22 219.01">
  <defs>
    <style>
      .cls-1 {
        fill: none;
      }

      .cls-2 {
        fill: #325e5b;
      }

      .cls-3 {
        fill: #f834f4;
      }

      .cls-4 {
        fill: #66fc42;
      }

      .cls-5 {
        fill: #f83b87;
      }

      .cls-6 {
        fill: #fcff6f;
      }

      .cls-7 {
        fill: #42a9f5;
      }

      .cls-8 {
        fill: #fc9f4a;
      }

      .cls-9 {
        fill: #7f3ff8;
      }
    </style>
  </defs>
  <g id="site">
    <g id="pointer-icon">
      <g id="pointer">
        <g>
          <path class="cls-1" d="M84.01,146.83c-3.1-11.18-62.95-5.45-70.77-6.63,6.93.33,99.57-51.77,102.41-34.24,0,0-21.21,96.72-21.21,96.72l-10.43-55.85Z"/>
          <g>
            <path class="cls-2" d="M83.42,150.32l.17.84c0-.08-.04-.31-.17-.84Z"/>
            <path class="cls-2" d="M83.51,149.52s0-.05-.01-.07c0,.01,0,.03.01.07Z"/>
            <path class="cls-2" d="M26.61,137.52s.09-.04.15-.08c-.09.05-.13.07-.15.08Z"/>
            <path class="cls-2" d="M50.82,121.8s-.01.06,0,.08c.06-.05.08-.07,0-.08Z"/>
            <path class="cls-2" d="M85.37,160.19c-.02-.13-.04-.27-.05-.39-.07-.07,0,.3.05.39Z"/>
            <path class="cls-2" d="M35.33,137.75s.08-.04.1-.06c-.06.02-.08.04-.1.06Z"/>
            <path class="cls-2" d="M90.2,192.09c.05.2.09.41.14.62-.04-.23-.09-.45-.14-.62Z"/>
            <path class="cls-2" d="M62.11,122.16c.15-.09.24-.16.27-.2-.18.09-.3.17-.27.2Z"/>
            <path class="cls-2" d="M62,121.49c6.35-.96,16.32-8.03,18.18-8.09,5.58-1.79-4.15,2.22-6.46,3.48,7.11-2.92,9.51-3.93,14.36-6.87-2.23.69.76-.89,2.38-1.15-.51.65-5.7,3.04-1.12,1.22-.43-.74,4.75-2.63,6.89-3.88-2.52,1.7-4.42,2.8-1.05,1.1,17.41-6.95,7.85-8.05,18.13-1.18-2.72-1.21,1.08.24.16,1.38-.34,1.89.65-1.2.31,1.29-.41,2.56-1.06,3.88-1.27,5.88-1.18,3.01.01.5-.27-1.26-.49.39-.4,5-1.42,5.34-1.72,11.52-4.08,18.97-6.33,31.18.03,2.02-.53,5.31-1.19,5.21.63-4.99-.18,1.09-1.03,3.86,1.04-1.48-1.44,5.62,0,3.22-.34,2.79-.25,2.06.22-.35.22.88-.75,4.27-1.19,5.2-.72-7.09-2,9.19-1.85,6.28-2.07,13.97-.57,7.94-4.07,18.06-.08,2.18-.62,4.29-.68,6.61.64-2.59,1.57-10.1,1.02-3.49,1.57-5.43.85.35.35,2.34-.33,2.09-1.22,3.13-1.63,5.84.2-.59.49-1.87.77-2.89-.8,5.71-1.67-.39-1.25.52-.2-14.07-4.74-26.38-7-41.89.22.8-.57-.99-.6-.95.07,1.24.3.17.62,1.89-.1,1.56-1.2-3.26-1.14-1.67.51,1.99,3.62,13.87,2.06,10.94-3.53-5.95-2.18-13.14-2.93-16.49-.35-3.33-.2-2.04-1.3-5.25.38,1.19.06,1.36.49,2.59-.71-1.57-.07,1.02-.25,1.65-.86-4.33.71,4.73.73,5.3-1.52-3.19-.36-2.7-1.05-5.28,0,.25-.41-.9-.1.64-1.81-6.39-1.05-1.01.01,3.21,1.4,4.84,4.19,19.63,7.04,29.84.52,8.97-2.01-8.27-3.36-8.97,3.36,13.5,2.47,10.07,4.54,24.2-.54-1.69-1.24-8.33-1.34-6.38-.81-4.99-.6-2.2.22,2.18.8,13.39,8.2,7.56,8.95-4.93.21-2.53-.06.54-.58,2.41,1.5-8.36,2.2-7.88,3.57-16,2.47-10.89,2.31-10.77,4.92-22.4.49-5.84-.67,1.48-1.59,4.09.07-.12-.24-1.08.14-1.18-.06-.36,0-1.26-.24-.11.71-5.41.57-3.43,2.36-11.11-.94,9.75,1.79-3.69,3.37-10.09,17.03-57.76-12.83-34.18-33.5-26.42-20.56,9.09-27.19,11.57-44.55,19.9,7.42-4.25-17.28,6.37-19.68,8.73-2,5.51,9.78,2.25,13.4,2.83,8.13-.27,5.38-.57,10.83-.05,13.81-.51,34.79-4.88,43.62,4.91,6.26,3.74-4.77-6.41-5.91-6.91-1.92-.7-6.57-.46-9.51-.53-.59.21-25.5-1.52-38.3-1.14-.76-.36-2.39.78-1.73-.09.85-.09-.37.07.44-.29-.27-.04-.14.09-.48.15-1.51.59,1.15-.48-.15.21-1.09.36-4.36.84-1.27.03-1.51.23.43-.19.78-.29-2.94.65-.43-.11,1.03-.33-1.45-.8.26-.51,1.65-1.52-2.5.44,2.75-.66,2.53-1.23,1.49-.66-.02.37-.65.76,2.83-.76,1.45-.07,4.61-1.38,11.22-4.18,27.83-14.42,27.33-12.42Z"/>
            <path class="cls-2" d="M85.37,160.19l.03.23c-.01-.18.04-.24-.03-.23Z"/>
            <path class="cls-2" d="M102.31,104.21c.1-.05.27-.17.26-.2-.12.07-.22.14-.26.2Z"/>
            <path class="cls-2" d="M110.73,118.77s.05-.03.08-.04c-.01-.03-.03-.03-.08.04Z"/>
            <path class="cls-2" d="M86.81,157.91l.15.53c-.04-.2-.08-.28-.15-.53Z"/>
          </g>
        </g>
      </g>
      <g id="yellow">
        <path class="cls-6" d="M123.34.06c-.33-.15-.12,0-.1.1l.1-.1Z"/>
        <path class="cls-6" d="M123.24.16l-.07.07c.06-.01.08-.04.07-.07Z"/>
        <path class="cls-6" d="M122.84.89c-.24-.24.18-.37-.21-.57-.29.13-.24.43.21.57Z"/>
        <path class="cls-6" d="M123.17.68l-.22-.07c.08.02.51.45.22.07Z"/>
        <path class="cls-6" d="M123.4.61c-.22-.06.1.25.09.3,0,0-.09-.3-.09-.3Z"/>
        <path class="cls-6" d="M122.55,1.46c-.1-.5.46.02.61-.06-.27-.63-1.54-.09-.61.06Z"/>
        <path class="cls-6" d="M122.82,12.75s-.03.01-.05.02c.05,0,.09,0,.05-.02Z"/>
        <path class="cls-6" d="M122.53,15.77c-.06.03-.09.07-.12.1.09,0,.16,0,.12-.1Z"/>
        <path class="cls-6" d="M122.33,10.72c.06-.03.1-.06.14-.09-.07,0-.12.03-.14.09Z"/>
        <path class="cls-6" d="M116.77,29.17s-.08-.04-.14-.04c.02,0,.13.08.14.04Z"/>
        <path class="cls-6" d="M122.57,19.22s0,.1.02.14c.02-.08.01-.12-.02-.14Z"/>
        <path class="cls-6" d="M122.51,9.65s0,0,0,0c-.06.09.11-.02,0,0Z"/>
        <path class="cls-6" d="M123.36,14.93s-.07.06-.08.1c.05-.03.07-.06.08-.1Z"/>
        <path class="cls-6" d="M121.46,4.09c-.05.04-.03.09.01.14.08-.02.1-.06-.01-.14Z"/>
        <path class="cls-6" d="M121.29,5.15s0,0,0,0c-.06,0-.05,0,0,0Z"/>
        <path class="cls-6" d="M121.11,5.82s0,0,0-.01c-.04,0-.05,0,0,.01Z"/>
        <path class="cls-6" d="M121.48,4.23c-.33,0-.73.06-.08.2-.15.51.81.15.08-.2Z"/>
        <path class="cls-6" d="M122.7,12.71c.12.01.07-.07,0,0h0Z"/>
        <path class="cls-6" d="M122.41,11.7s-.03.06-.04.09c.03-.02.06-.05.04-.09Z"/>
        <path class="cls-6" d="M123.28,8.31s-.02,0-.03.01c.07.02.06,0,.03-.01Z"/>
        <path class="cls-6" d="M122.34,11.87s.01-.05.02-.08c-.03.02-.05.04-.02.08Z"/>
        <path class="cls-6" d="M122.72,9.27s-.02,0-.02.01c0,0,.02,0,.02-.01Z"/>
        <path class="cls-6" d="M111.79,42.83c.44-.35-.37-.09-.12.06.26.02.58-.06.12-.06Z"/>
        <path class="cls-6" d="M115.75,29.85c-.81-.06.38.16.66.35.07-.21-.49-.14-.66-.35Z"/>
        <path class="cls-6" d="M116.46,30.07c.09,0,.12,0,.19-.06-.08,0-.14.03-.19.06Z"/>
        <path class="cls-6" d="M112.44,40.58s.04-.05.05-.07c-.09.02-.09.04-.05.07Z"/>
        <path class="cls-6" d="M117.49,17.95s-.07-.08-.11-.12c.01.06.05.09.11.12Z"/>
        <path class="cls-6" d="M116.49,28.3c.06-.03.09-.06.07-.12,0,0-.07.12-.07.12Z"/>
        <path class="cls-6" d="M119.23,34.53c-.44-.15.03.05-.26.11.18.18.33.17.26-.11Z"/>
        <path class="cls-6" d="M111.64,42.89s.05.02.03,0c0,0-.03,0-.03,0Z"/>
        <path class="cls-6" d="M118.67,37.74s-.05.03-.07.04c.03,0,.05-.02.07-.04Z"/>
        <path class="cls-6" d="M116.79,29.48c-.04-.08.3-.62-.03-.31.21.1-.24.19.03.31Z"/>
        <path class="cls-6" d="M119.86,32.84c3.48-17.14,2.7-16.87,2.83-23.64-.05.5,1.44-1.94.4-1.72-1.55-.9,1.97-.66.41-.96-1.45.33.13-.37-1.45-.72,3.04-.3.15-1.61.98-2.21.54.81-.24-1.34.75-.26.21-1.07-.74-1.11-1.52-1.87.27.73-.18.43.92,1.41-.39.84-.91-1.11-1.08.12.54.67-.95.65,1.05,1.71-1.94-1.64-3.75,4.61-2.97,5-1.61,2.7-3.73,14.4-3.93,13.55-2-.1,1.46.96-.47,1.47-.97-.41,1.09.19.84.8-2.18-.79,1.61,1.28-.38,1.45-.97-.44.42.72.33,1.28,1.44.93-.65.63-.11.14-1.75-3.45-2.01,1.87.5.46.43,1.04.35,2.35-2.7,1.31,2.96,3.07-2.9,8.21-1.93,13.18-2.77-1.2,3.21,2.57-.78,1.03.16,1.79,1.72,3.35.05,2.62.49.44,1.4,1.16.18.88.65.34,1.62.68.4.45-.88.25,1.38.51-.19.44,4.68,3.82,5.5-13.62,7.87-15.91ZM123.04,8.35l-.08.02c-.07-.09-.13-.15.08-.02ZM122.51,10.24c.23-.62-.16.63.27.4-.88.48-.21-.41-.27-.4ZM121.08,5.44s.07.03.1.05c0,0-.1-.05-.1-.05ZM121.26,6.67c-.11,0-.17.01-.21.04.13,0,.24,0,.21-.04ZM120.21,8.83c-.21.01-.17.14-.15.24.03-.04.11-.1.15-.24ZM117.44,23.24c-.12-.27-.59-.19-.31.08.01,0,.36-.07.31-.08ZM117.64,30.33c-.28-.1-.49-.15-.69-.18-.14.33.92.36.69.18Z"/>
        <path class="cls-6" d="M115.52,27.54s0,.05,0,.07c0-.02,0-.04,0-.07Z"/>
        <path class="cls-6" d="M116.9,30.29s.12-.04.2-.1c-.08,0-.15.03-.2.1Z"/>
        <path class="cls-6" d="M123.98,2.15c.6.14-.14-.44-.47-.47.35.33-.17.82.47.47Z"/>
        <path class="cls-6" d="M121.86,1.83c-.09,0-.31.02-.34.05.12.08.25.06.34-.05Z"/>
        <path class="cls-6" d="M120.39,4.29l.21-.18c-.15-.1-.5.08-.21.18Z"/>
        <path class="cls-6" d="M123.91,4.03c-.15-.27-.56-.03-.16.12-.1-.16.13,0,.16-.12Z"/>
        <path class="cls-6" d="M120.23,4.85c.37.14-.21.18.14.3-.09-.08.24-.21-.14-.3Z"/>
        <path class="cls-6" d="M123.86,5.44c.37,0,.08-.17.19-.29-.02.11-.43.19-.19.29Z"/>
        <path class="cls-6" d="M121.07,6.21c-.47-.15-.04-.32.08-.09-.44-.77-1.34.19-.08.09Z"/>
        <path class="cls-6" d="M123.84,5.78c.72-.18.09-.44-.07-.11-.62-.17-.16-.14.07.11Z"/>
        <path class="cls-6" d="M120.21,6.67c.24-.01.01-.45-.27-.59-.02.19.1.46.27.59Z"/>
        <path class="cls-6" d="M123.14,6.2c.17.09.81.12.19.02.32-.13-.29-.12-.19-.02Z"/>
        <path class="cls-6" d="M123.52,6.82c.06.32.44.21.66.18-.12-.27-.27-.07-.66-.18Z"/>
        <path class="cls-6" d="M123.17,7c-.32-.07.53.42.5.44-.24-.24-.19-.24-.5-.44Z"/>
        <path class="cls-6" d="M119.55,10.05c.18.07.45-.05.23-.02-.15-.07-.44.12-.23.02Z"/>
        <path class="cls-6" d="M123.23,10.06c-.16.06.05.39.15.54-.06-.17.11-.51-.15-.54Z"/>
        <path class="cls-6" d="M123.43,10.67s-.02-.03-.04-.06c0,.03.02.04.04.06Z"/>
        <path class="cls-6" d="M123.33,16.03s.01.03.04.05c-.02-.02-.03-.03-.04-.05Z"/>
        <path class="cls-6" d="M123.25,15.88c.06-.45-.39-.3.09.15-.01-.06.15-.1-.09-.15Z"/>
        <path class="cls-6" d="M122.9,17.05c-.11-.09-.03-.16-.22-.18-.09.02.08.19.22.18Z"/>
        <path class="cls-6" d="M115.73,23.89c-.12.09-.06.18.22.2.02-.13-.16-.09-.22-.2Z"/>
        <path class="cls-6" d="M115.98,24.25c-.08-.02-.28,0-.37.02,0,0,.37-.02.37-.02Z"/>
        <path class="cls-6" d="M115.42,24.95s-.09-.05-.11-.07c.03.05.06.1.11.07Z"/>
        <path class="cls-6" d="M115.29,24.86s0,.02.01.03c0,0,0-.02-.01-.03Z"/>
        <path class="cls-6" d="M115.39,24.82l-.15-.04c.07.1,0,.04.15.04Z"/>
        <path class="cls-6" d="M115.32,25.18l.45-.06s-.93-.16-.45.06Z"/>
        <path class="cls-6" d="M115.33,25.73c-.07.74.4.49.88,1.02.09-.51-.93-.56-.88-1.02Z"/>
        <path class="cls-6" d="M116.18,25.83c-.24-.07-.3.1-.15.19.04-.05.41-.07.15-.19Z"/>
        <path class="cls-6" d="M115.39,26.56l-.22.08c.12.08.18.06.22-.08Z"/>
        <path class="cls-6" d="M115.19,27.01l-.26-.18c.1.06.04.24.26.18Z"/>
        <path class="cls-6" d="M114.69,27.59c-.12.09.52.33.43.06-.06.08-.4.07-.43-.06Z"/>
        <path class="cls-6" d="M115.43,29.33c.03-.08-.04-.19-.18-.2.05.06.05.33.18.2Z"/>
        <path class="cls-6" d="M117.05,29.63c.42.01,0-.21.17-.32-.11.15-.16.11-.17.32Z"/>
        <path class="cls-6" d="M114.8,29.45c-.15-.09-.03-.16,0-.21-.24-.02-.21.14,0,.21Z"/>
        <path class="cls-6" d="M114.87,29.82c-1.19.02,0,.49.49.52-.48-.87-1.11-1-.49-.52Z"/>
        <path class="cls-6" d="M116.31,29.61c-.48.11.03.07.05.29.52.07-.04-.21-.05-.29Z"/>
        <path class="cls-6" d="M114.9,31.22l.06.3c.1-.06-.04-.23-.06-.3Z"/>
        <path class="cls-6" d="M114.7,31.36c-.38-.12.08.16.08.24,0,0-.08-.24-.08-.24Z"/>
        <path class="cls-6" d="M114.47,31.61c.08-.01-.07-.19-.07-.21,0,0,.07.21.07.21Z"/>
        <path class="cls-6" d="M114.25,32.15c.13.04.5-.14.16-.22.09.08.02.22-.16.22Z"/>
        <path class="cls-6" d="M119.39,35.18c-.13-.08-.27-.08-.4-.07.15.06.32.19.4.07Z"/>
        <path class="cls-6" d="M118.72,35.38c.5.42.44.19.14-.25-.15.06.22.48-.14.25Z"/>
        <path class="cls-6" d="M117.56,39.37c-.67-.46-.32.65.02.57-.16-.45.22-.07-.02-.57Z"/>
        <path class="cls-6" d="M112.49,49.35c-.13-.05-.25-.04-.38-.04.11.19.36,0,.38.04Z"/>
      </g>
      <g id="orange">
        <path class="cls-8" d="M52.19,9.38c-.35.08-.09.07-.02.14l.02-.14Z"/>
        <path class="cls-8" d="M52.18,9.52v.1s.03-.08,0-.1Z"/>
        <path class="cls-8" d="M52.28,10.34c-.33-.05-.07-.41-.51-.33-.16.27.06.49.51.33Z"/>
        <path class="cls-8" d="M52.42,9.97l-.22.08c.07-.03.68.06.22-.08Z"/>
        <path class="cls-8" d="M52.57,9.78c-.22.08.23.14.25.19,0,0-.25-.19-.25-.19Z"/>
        <path class="cls-8" d="M52.38,10.97c-.37-.35.38-.25.45-.41-.59-.36-1.3.84-.45.41Z"/>
        <path class="cls-8" d="M59.23,19.94s-.02.03-.03.04c.04-.03.07-.05.03-.04Z"/>
        <path class="cls-8" d="M60.77,22.55c-.03.06-.04.11-.04.15.07-.06.13-.1.04-.15Z"/>
        <path class="cls-8" d="M57.64,18.59c.03-.06.05-.11.06-.16-.05.05-.08.1-.06.16Z"/>
        <path class="cls-8" d="M63.99,36.78s-.09.02-.14.05c.02,0,.15,0,.14-.05Z"/>
        <path class="cls-8" d="M62.83,25.33s.05.08.1.1c-.03-.08-.06-.1-.1-.1Z"/>
        <path class="cls-8" d="M57.16,17.62s0,0,0,0c0,.11.08-.08,0,0Z"/>
        <path class="cls-8" d="M60.95,21.39c-.01.05-.02.1,0,.12.02-.05.02-.09,0-.12Z"/>
        <path class="cls-8" d="M53.05,13.73c-.02.06.03.09.09.1.05-.06.05-.1-.09-.1Z"/>
        <path class="cls-8" d="M53.54,14.7s0,0,0,0c-.05.03-.04.03,0,0Z"/>
        <path class="cls-8" d="M53.78,15.34s-.01,0-.02,0c-.03.02-.04.03.02,0Z"/>
        <path class="cls-8" d="M53.14,13.84c-.27.2-.55.48.05.21.18.5.74-.36-.05-.21Z"/>
        <path class="cls-8" d="M59.12,19.98c.11-.06.02-.1,0,0h0Z"/>
        <path class="cls-8" d="M58.28,19.34s0,.06.02.09c0-.04.02-.07-.02-.09Z"/>
        <path class="cls-8" d="M57,16.08s0,.02-.02.03c.06-.02.05-.03.02-.03Z"/>
        <path class="cls-8" d="M58.33,19.51s-.02-.05-.03-.08c-.01.03-.02.06.03.08Z"/>
        <path class="cls-8" d="M57.11,17.19s-.01.02-.01.02c0,0,.01-.01.01-.02Z"/>
        <path class="cls-8" d="M67.99,50.76c.15-.54-.36.15-.07.12.22-.13.44-.39.07-.12Z"/>
        <path class="cls-8" d="M63.57,37.93c-.69.43.4-.1.74-.11-.06-.21-.48.17-.74.11Z"/>
        <path class="cls-8" d="M64.27,37.69c.08-.05.09-.08.11-.16-.06.05-.1.11-.11.16Z"/>
        <path class="cls-8" d="M67.2,48.56s0-.06,0-.09c-.06.07-.05.09,0,.09Z"/>
        <path class="cls-8" d="M57.98,27.28c-.05-.01-.11-.03-.16-.03.04.04.1.04.16.03Z"/>
        <path class="cls-8" d="M63.25,36.25c.03-.06.04-.1-.01-.14,0,0,.01.14.01.14Z"/>
        <path class="cls-8" d="M69.14,39.67c-.45.14.05.03-.14.24.25.04.36-.06.14-.24Z"/>
        <path class="cls-8" d="M67.9,50.9s.05-.02.03-.02c0,0-.03.02-.03.02Z"/>
        <path class="cls-8" d="M70.57,42.6s-.03.05-.04.07c.02-.02.03-.05.04-.07Z"/>
        <path class="cls-8" d="M64.19,37.02c-.07-.04-.12-.67-.2-.23.23-.04-.08.3.2.23Z"/>
        <path class="cls-8" d="M68.65,37.93c-7.75-17.3-8.17-14.99-12.29-22.42-1.78.18,1.2-1.69-.23-1.02-.98,1.12-.11-.38-1.6.27,2.28-2.03-.82-1.39-.51-2.36.92.34-.98-.95.46-.66-.72-1.34-4.27-.44-.76-.02.42,1.04-1.89-.38-.67.44,1.7,2.87-.1-.07.72,3.16,1.46-.75-1.08,1.54,1.14,1.19-1.21.36-.01.96-1.43.17,3.37,4.14,4.99,14.35,7.14,15.1.43.05-.51,1.08-.52.48-1.67,1.09,1.75-.08.48,1.46-1.03.24.99-.49,1.15.16-2.23.64,2.06.09.54,1.4-1.04.22.77.33,1.02.85,2.02.69-1.79-.32-1.94.1,1.22.57,1.7,1.99,2.61.16,1.88.57.12,1.92-1.18,2.94,4.51.49.13.9,2.44,2.84-.73-.15,3.33,8.09,2.74,8.69-.77.88,4.3.05.76,1.26,1.26,1.4,3.18,1.67,1.58,2.09.66.07,1.81.12.67.6.72-.11,1.71-.4.58.13-.21.69,1.25.09.96,1.43,3.96-5.46-4.31-13.29-3.84-18.46ZM56.83,16.25l-.05.06c-.11-.03-.19-.04.05-.06ZM57.51,18.1c-.18-.63.24.61.45.17-.43.91-.41-.2-.45-.17ZM53.53,15.05s.08-.02.11-.02c0,0-.11.02-.11.02ZM54.4,15.94c-.09.06-.13.11-.15.16.11-.07.2-.14.15-.16ZM54.81,18.3c-.16.13-.06.22.02.28,0-.05.03-.14-.02-.28ZM61.05,31.59c-.25-.15-.59.19-.21.24.01,0,.24-.27.21-.24ZM65.38,37.21c-.28.08-.48.17-.66.26.08.35.95-.26.66-.26Z"/>
        <path class="cls-8" d="M62.02,36.2s.02.04.04.05c0-.02-.02-.03-.04-.05Z"/>
        <path class="cls-8" d="M64.75,37.62s.07-.1.1-.2c-.07.05-.11.11-.1.2Z"/>
        <path class="cls-8" d="M53.95,10.68c.57-.24-.37-.28-.66-.1.48.06.35.77.66.1Z"/>
        <path class="cls-8" d="M52.04,11.67c-.07.06-.24.2-.25.24.14,0,.24-.1.25-.24Z"/>
        <path class="cls-8" d="M52.29,14.53l.07-.27c-.18,0-.36.36-.07.27Z"/>
        <path class="cls-8" d="M54.99,12.25c-.28-.13-.47.3-.06.19-.17-.07.1-.08.06-.19Z"/>
        <path class="cls-8" d="M52.49,15.07c.38-.1-.07.27.28.16-.12,0,.07-.31-.28-.16Z"/>
        <path class="cls-8" d="M55.78,13.42c.3-.21-.04-.18-.01-.34.05.1-.24.41.01.34Z"/>
        <path class="cls-8" d="M53.97,15.68c-.47.15-.22-.23.02-.12-.81-.36-.97.94-.02.12Z"/>
        <path class="cls-8" d="M55.96,13.7c.48-.57-.18-.41-.12-.05-.6.23-.21-.01.12.05Z"/>
        <path class="cls-8" d="M53.55,16.56c.19-.15-.25-.37-.57-.32.1.17.36.31.57.32Z"/>
        <path class="cls-8" d="M55.64,14.46c.19-.02.73-.38.17-.1.19-.29-.31.07-.17.1Z"/>
        <path class="cls-8" d="M56.31,14.73c.23.22.48-.09.64-.24-.26-.15-.26.1-.64.24Z"/>
        <path class="cls-8" d="M56.14,15.09c-.3.13.68.03.66.06-.33-.05-.3-.08-.66-.06Z"/>
        <path class="cls-8" d="M55,19.68c.19-.05.34-.31.17-.15-.16.03-.29.36-.17.15Z"/>
        <path class="cls-8" d="M57.99,17.53c-.1.14.27.29.44.35-.15-.1-.21-.47-.44-.35Z"/>
        <path class="cls-8" d="M58.5,17.9s-.04-.01-.07-.02c.02.02.04.02.07.02Z"/>
        <path class="cls-8" d="M61.58,22.29s.03.02.06.01c-.02,0-.04,0-.06-.01Z"/>
        <path class="cls-8" d="M61.42,22.23c-.22-.4-.49,0,.15.07-.05-.04.06-.17-.15-.07Z"/>
        <path class="cls-8" d="M61.83,23.37c-.14,0-.12-.11-.28-.01-.06.07.18.11.28.01Z"/>
        <path class="cls-8" d="M60.05,33.12c-.04.15.05.18.3.03-.06-.12-.18.02-.3-.03Z"/>
        <path class="cls-8" d="M60.46,33.27c-.08.03-.23.17-.29.23,0,0,.29-.23.29-.23Z"/>
        <path class="cls-8" d="M60.42,34.17s-.1.01-.13,0c.05.03.11.04.13,0Z"/>
        <path class="cls-8" d="M60.26,34.16s.02.01.03.01c0,0-.02,0-.03-.01Z"/>
        <path class="cls-8" d="M60.32,34.08l-.14.05c.11.04.02.03.14-.05Z"/>
        <path class="cls-8" d="M60.47,34.41l.33-.32s-.85.42-.33.32Z"/>
        <path class="cls-8" d="M60.8,34.85c.38.64.61.16,1.31.31-.23-.47-1.08.1-1.31-.31Z"/>
        <path class="cls-8" d="M61.55,34.43c-.24.08-.19.26,0,.24,0-.06.29-.29,0-.24Z"/>
        <path class="cls-8" d="M61.34,35.49l-.13.2c.14-.01.18-.06.13-.2Z"/>
        <path class="cls-8" d="M61.44,35.97h-.32c.12,0,.18.18.32,0Z"/>
        <path class="cls-8" d="M61.39,36.73c-.04.15.62-.04.38-.2,0,.1-.28.3-.38.2Z"/>
        <path class="cls-8" d="M63,37.7c-.02-.08-.14-.13-.26-.06.07.02.24.24.26.06Z"/>
        <path class="cls-8" d="M64.49,36.99c.35-.24-.12-.17-.05-.36,0,.18-.06.19.05.36Z"/>
        <path class="cls-8" d="M62.56,38.17c-.18.02-.12-.11-.11-.17-.2.12-.09.23.11.17Z"/>
        <path class="cls-8" d="M62.84,38.43c-.95.72.28.4.7.13-.9-.43-1.49-.16-.7-.13Z"/>
        <path class="cls-8" d="M63.88,37.41c-.33.37.07.04.21.2.47-.25-.15-.15-.21-.2Z"/>
        <path class="cls-8" d="M63.68,39.54l.23.2c.04-.11-.16-.17-.23-.2Z"/>
        <path class="cls-8" d="M63.6,39.77c-.37.13.16.08.21.15,0,0-.21-.15-.21-.15Z"/>
        <path class="cls-8" d="M63.56,40.11c.05-.05-.16-.11-.18-.13,0,0,.18.13.18.13Z"/>
        <path class="cls-8" d="M63.71,40.68c.13-.04.32-.41,0-.27.12.01.14.16,0,.27Z"/>
        <path class="cls-8" d="M69.64,40.11c-.15.01-.26.1-.37.18.16-.04.37-.04.37-.18Z"/>
        <path class="cls-8" d="M69.22,40.66c.65.05.46-.1-.03-.29-.08.14.46.26.03.29Z"/>
        <path class="cls-8" d="M70.62,44.57c-.82.02.13.71.35.45-.4-.27.14-.18-.35-.45Z"/>
        <path class="cls-8" d="M72.39,55.63c-.13.03-.23.11-.33.19.2.08.29-.21.33-.19Z"/>
      </g>
      <g id="red">
        <path class="cls-5" d="M.11,58.73c-.24.27-.03.11.07.12l-.07-.12Z"/>
        <path class="cls-5" d="M.18,58.85l.05.09c0-.06-.01-.08-.05-.09Z"/>
        <path class="cls-5" d="M.75,59.45c-.3.15-.29-.29-.61.03.03.31.33.36.61-.03Z"/>
        <path class="cls-5" d="M.65,59.08l-.14.19c.04-.07.59-.35.14-.19Z"/>
        <path class="cls-5" d="M.65,58.84c-.13.19.27-.02.31,0,0,0-.31,0-.31,0Z"/>
        <path class="cls-5" d="M1.2,59.91c-.51-.06.16-.43.13-.59-.69.06-.56,1.44-.13.59Z"/>
        <path class="cls-5" d="M12.02,63.14s0,.03,0,.05c.02-.05.03-.09,0-.05Z"/>
        <path class="cls-5" d="M14.8,64.34c.01.06.03.11.06.15.02-.08.05-.16-.06-.15Z"/>
        <path class="cls-5" d="M9.94,62.98c-.01-.07-.03-.12-.05-.16-.01.07,0,.13.05.16Z"/>
        <path class="cls-5" d="M25.76,73.97s-.07.07-.08.12c.01-.02.12-.1.08-.12Z"/>
        <path class="cls-5" d="M18.09,65.38s.09.03.14.02c-.06-.05-.11-.05-.14-.02Z"/>
        <path class="cls-5" d="M8.98,62.47s0,0,0,0c.07.08.01-.11,0,0Z"/>
        <path class="cls-5" d="M14.26,63.3s.04.09.07.1c-.01-.05-.04-.08-.07-.1Z"/>
        <path class="cls-5" d="M3.36,61.75c.02.06.08.06.14.03,0-.08-.02-.11-.14-.03Z"/>
        <path class="cls-5" d="M4.33,62.24s0,0,0,0c-.02.05-.01.04,0,0Z"/>
        <path class="cls-5" d="M4.9,62.62s-.01,0-.02,0c-.01.04-.01.05.02,0Z"/>
        <path class="cls-5" d="M3.5,61.78c-.1.31-.16.71.16.14.44.3.39-.73-.16-.14Z"/>
        <path class="cls-5" d="M11.95,63.24c.05-.11-.04-.09,0,0h0Z"/>
        <path class="cls-5" d="M10.9,63.21s.04.04.07.06c-.01-.04-.03-.07-.07-.06Z"/>
        <path class="cls-5" d="M7.94,61.33s0,.02,0,.03c.04-.06.02-.05,0-.03Z"/>
        <path class="cls-5" d="M11.04,63.32s-.05-.03-.07-.05c.01.03.03.06.07.05Z"/>
        <path class="cls-5" d="M8.68,62.16s0,.02,0,.02c0,0,0-.02,0-.02Z"/>
        <path class="cls-5" d="M37.22,82.92c-.2-.52-.2.33.02.13.1-.24.12-.57-.02-.13Z"/>
        <path class="cls-5" d="M26.1,75.14c-.31.75.27-.31.53-.52-.18-.13-.29.42-.53.52Z"/>
        <path class="cls-5" d="M26.53,74.54c.04-.08.03-.12,0-.2-.02.07-.02.14,0,.2Z"/>
        <path class="cls-5" d="M35.28,81.61s-.03-.05-.05-.07c0,.09.01.1.05.07Z"/>
        <path class="cls-5" d="M15.32,69.81s-.1.04-.15.07c.06,0,.1-.02.15-.07Z"/>
        <path class="cls-5" d="M24.86,73.97c-.01-.07-.03-.11-.1-.11,0,0,.1.11.1.11Z"/>
        <path class="cls-5" d="M31.63,73.28c-.28.38.06-.01.03.28.22-.12.26-.26-.03-.28Z"/>
        <path class="cls-5" d="M37.23,83.09s.03-.04,0-.03c0,0,0,.03,0,.03Z"/>
        <path class="cls-5" d="M34.51,74.8s0,.06.01.08c0-.03,0-.06-.01-.08Z"/>
        <path class="cls-5" d="M26.07,74.04c-.08.01-.49-.47-.3-.07.16-.17.11.29.3.07Z"/>
        <path class="cls-5" d="M30.21,72.16c-17.86-10.07-18.72-9.03-24.69-11.33-.85-.55-.76-1.32-1.83-.32-1.47-2.11.07-1.59-2.36-.79-.15,1.28.8-.22,1.72.3-1.75-.06-.2,2.04.94.46,1.07-.61-.21.97-.46.67-.29.6.69-.11.48.63.26.74.64-.64.33.46.12.41.51.81.68-.24,1.31,2.05,5.41,5.88,10.98,7.03-1.26,2.77,5.81,2.16,3.73,4.43,2.32-1.93.99,1.17,1.57-.11,4.16-.85.79,1.01,2.78.74,1.94-1.06,1.5.4-.36.18.92,3.85,2.09-3.26,2.84-.04.23.34.47.46.52-.27.41,0-.04,1.27-.4.68.55.65-1.46,3.1,0,1.4.11.43-.57,1.36.11.39,3.68-.17,2.56,2.3,9.32,5.33,1.8,1.53,1.02,1.81,3.51.34-2.84,3.29,3.57.32,1.51,2.29.57-.33,1.53-.97.89.1,9.2-.65-10-9.25-11.8-12.33ZM7.9,61.57v.08c-.11.03-.19.08,0-.08ZM9.54,62.66c-.51-.41.55.35.46-.13.19.98-.45.07-.46.13ZM4.53,62.53s.05-.06.08-.08c0,0-.08.08-.08.08ZM5.75,62.74c-.04.1-.04.16-.03.21.04-.12.08-.23.03-.21ZM7.48,64.41c-.05.2.08.21.18.21-.03-.04-.06-.13-.18-.21ZM20.34,71.49c-.29.03-.37.5-.02.32,0-.01.04-.36.02-.32ZM27.14,73.49c-.18.23-.29.42-.38.6.27.23.63-.76.38-.6Z"/>
        <path class="cls-5" d="M23.83,74.65s.04.02.06.02c-.02,0-.04-.01-.06-.02Z"/>
        <path class="cls-5" d="M26.87,74.19s0-.12-.04-.22c-.03.08-.02.15.04.22Z"/>
        <path class="cls-5" d="M2.3,58.76c.32-.53-.46,0-.59.3.43-.23.73.42.59-.3Z"/>
        <path class="cls-5" d="M1.34,60.68c-.02.09-.08.3-.06.34.11-.09.14-.22.06-.34Z"/>
        <path class="cls-5" d="M3.22,62.83l-.1-.26c-.14.11-.08.5.1.26Z"/>
        <path class="cls-5" d="M4.07,59.41c-.3.06-.2.52.06.19-.18.04.03-.13-.06-.19Z"/>
        <path class="cls-5" d="M3.71,63.16c.25-.3.1.26.32-.04-.1.06-.12-.29-.32.04Z"/>
        <path class="cls-5" d="M5.39,59.89c.12-.35-.14-.13-.21-.27.1.06.05.47.21.27Z"/>
        <path class="cls-5" d="M5.26,62.78c-.29.4-.31-.06-.06-.11-.87.18-.24,1.33.06.11Z"/>
        <path class="cls-5" d="M5.7,60.01c.05-.74-.39-.22-.12.03-.35.54-.18.11.12-.03Z"/>
        <path class="cls-5" d="M5.43,63.74c.06-.23-.42-.15-.65.08.18.08.47.04.65-.08Z"/>
        <path class="cls-5" d="M5.89,60.81c.14-.13.36-.74.07-.18-.02-.35-.21.24-.07.18Z"/>
        <path class="cls-5" d="M6.59,60.64c.32.04.33-.36.38-.57-.29.03-.15.24-.38.57Z"/>
        <path class="cls-5" d="M6.66,61.03c-.17.28.57-.38.57-.34-.3.15-.29.11-.57.34Z"/>
        <path class="cls-5" d="M8.44,65.41c.13-.15.09-.45.05-.22-.11.12-.02.46-.05.22Z"/>
        <path class="cls-5" d="M9.59,61.91c0,.17.39.07.56.02-.18,0-.45-.26-.56-.02Z"/>
        <path class="cls-5" d="M10.23,61.91s-.04.01-.07.02c.03,0,.05,0,.07-.02Z"/>
        <path class="cls-5" d="M15.3,63.66s.03,0,.06-.03c-.02.01-.04.02-.06.03Z"/>
        <path class="cls-5" d="M15.13,63.7c-.41-.19-.41.28.17-.04-.06,0-.05-.17-.17.04Z"/>
        <path class="cls-5" d="M16.14,64.38c-.12.08-.16-.02-.23.15-.01.09.21-.02.23-.15Z"/>
        <path class="cls-5" d="M20.43,73.32c.05.15.15.11.26-.15-.12-.06-.14.12-.26.15Z"/>
        <path class="cls-5" d="M20.85,73.2c-.05.07-.08.27-.1.35,0,0,.1-.35.1-.35Z"/>
        <path class="cls-5" d="M21.34,73.95s-.07.07-.1.08c.06-.01.11-.03.1-.08Z"/>
        <path class="cls-5" d="M21.21,74.04s.02,0,.03,0c0,0-.02,0-.03,0Z"/>
        <path class="cls-5" d="M21.21,73.93l-.08.13c.12-.04.03,0,.08-.13Z"/>
        <path class="cls-5" d="M21.52,74.11l.08-.45s-.44.84-.08.45Z"/>
        <path class="cls-5" d="M22.05,74.27c.68.3.59-.23,1.24-.52-.46-.24-.82.72-1.24.52Z"/>
        <path class="cls-5" d="M22.41,73.5c-.15.21,0,.32.14.2-.03-.05.06-.41-.14-.2Z"/>
        <path class="cls-5" d="M22.86,74.48v.23c.12-.09.13-.15,0-.23Z"/>
        <path class="cls-5" d="M23.23,74.8l-.25.19c.09-.08.24.03.25-.19Z"/>
        <path class="cls-5" d="M23.63,75.45c.05.14.48-.4.19-.39.05.08-.05.41-.19.39Z"/>
        <path class="cls-5" d="M25.5,75.29c-.06-.05-.19-.02-.24.11.07-.03.33.05.24-.11Z"/>
        <path class="cls-5" d="M26.29,73.84c.14-.4-.19-.07-.25-.26.1.15.06.19.25.26Z"/>
        <path class="cls-5" d="M25.43,75.93c-.14.12-.16-.02-.19-.07-.09.22.07.24.19.07Z"/>
        <path class="cls-5" d="M25.8,75.98c-.35,1.14.47.16.64-.31-.98.18-1.3.74-.64.31Z"/>
        <path class="cls-5" d="M26.05,74.54c-.05.49.08,0,.29.04.23-.48-.21-.03-.29-.04Z"/>
        <path class="cls-5" d="M27.14,76.37l.3.03c-.03-.11-.23-.04-.3-.03Z"/>
        <path class="cls-5" d="M27.21,76.61c-.23.32.18-.02.25,0,0,0-.25,0-.25,0Z"/>
        <path class="cls-5" d="M27.37,76.91c.01-.08-.2,0-.22,0,0,0,.22,0,.22,0Z"/>
        <path class="cls-5" d="M27.83,77.28c.08-.11.02-.52-.16-.22.1-.06.21.05.16.22Z"/>
        <path class="cls-5" d="M32.29,73.33c-.12.1-.15.23-.19.36.1-.12.28-.25.19-.36Z"/>
        <path class="cls-5" d="M32.28,74.03c.56-.35.32-.35-.19-.21.01.16.52-.06.19.21Z"/>
        <path class="cls-5" d="M35.71,76.37c-.65.5.52.5.55.15-.48.02,0-.23-.55-.15Z"/>
        <path class="cls-5" d="M43.63,84.28c-.09.1-.12.23-.15.35.21-.05.11-.34.15-.35Z"/>
      </g>
      <g id="pink">
        <path class="cls-3" d="M152,219.01c.35-.08.09-.07.02-.14l-.02.14Z"/>
        <path class="cls-3" d="M152.02,218.87v-.1s-.03.08,0,.1Z"/>
        <path class="cls-3" d="M151.91,218.05c.33.05.07.41.51.33.16-.27-.06-.49-.51-.33Z"/>
        <path class="cls-3" d="M151.77,218.42l.22-.08c-.07.03-.68-.06-.22.08Z"/>
        <path class="cls-3" d="M151.63,218.61c.22-.08-.23-.14-.25-.19,0,0,.25.19.25.19Z"/>
        <path class="cls-3" d="M151.81,217.42c.37.35-.38.25-.45.41.59.36,1.3-.84.45-.41Z"/>
        <path class="cls-3" d="M144.96,208.44s.02-.03.03-.04c-.04.03-.07.05-.03.04Z"/>
        <path class="cls-3" d="M143.42,205.84c.03-.06.04-.11.04-.15-.07.06-.13.1-.04.15Z"/>
        <path class="cls-3" d="M146.55,209.8c-.03.06-.05.11-.06.16.05-.05.08-.1.06-.16Z"/>
        <path class="cls-3" d="M140.21,191.61s.09-.02.14-.05c-.02,0-.15,0-.14.05Z"/>
        <path class="cls-3" d="M141.36,203.06s-.05-.08-.1-.1c.03.08.06.1.1.1Z"/>
        <path class="cls-3" d="M147.03,210.77s0,0,0,0c0-.11-.08.08,0,0Z"/>
        <path class="cls-3" d="M143.24,207c.01-.05.02-.1,0-.12-.02.05-.02.09,0,.12Z"/>
        <path class="cls-3" d="M151.15,214.66c.02-.06-.03-.09-.09-.1-.05.06-.05.1.09.1Z"/>
        <path class="cls-3" d="M150.66,213.69s0,0,0,0c.05-.03.04-.03,0,0Z"/>
        <path class="cls-3" d="M150.41,213.05s.01,0,.02,0c.03-.02.04-.03-.02,0Z"/>
        <path class="cls-3" d="M151.05,214.55c.27-.2.55-.48-.05-.21-.18-.5-.74.36.05.21Z"/>
        <path class="cls-3" d="M145.08,208.41c-.11.06-.02.1,0,0h0Z"/>
        <path class="cls-3" d="M145.91,209.05s0-.06-.02-.09c0,.04-.02.07.02.09Z"/>
        <path class="cls-3" d="M147.19,212.31s0-.02.02-.03c-.06.02-.05.03-.02.03Z"/>
        <path class="cls-3" d="M145.86,208.88s.02.05.03.08c.01-.03.02-.06-.03-.08Z"/>
        <path class="cls-3" d="M147.09,211.2s.01-.02.01-.02c0,0-.01.01-.01.02Z"/>
        <path class="cls-3" d="M136.2,177.63c-.15.54.36-.15.07-.12-.22.13-.44.39-.07.12Z"/>
        <path class="cls-3" d="M140.63,190.46c.69-.43-.4.1-.74.11.06.21.48-.17.74-.11Z"/>
        <path class="cls-3" d="M139.92,190.7c-.08.05-.09.08-.11.16.06-.05.1-.11.11-.16Z"/>
        <path class="cls-3" d="M137,179.83s0,.06,0,.09c.06-.07.05-.09,0-.09Z"/>
        <path class="cls-3" d="M146.22,201.11c.05.01.11.03.16.03-.04-.04-.1-.04-.16-.03Z"/>
        <path class="cls-3" d="M140.94,192.14c-.03.06-.04.1.01.14,0,0-.01-.14-.01-.14Z"/>
        <path class="cls-3" d="M135.06,188.72c.45-.14-.05-.03.14-.24-.25-.04-.36.06-.14.24Z"/>
        <path class="cls-3" d="M136.29,177.49s-.05.02-.03.02c0,0,.03-.02.03-.02Z"/>
        <path class="cls-3" d="M133.62,185.79s.03-.05.04-.07c-.02.02-.03.05-.04.07Z"/>
        <path class="cls-3" d="M140,191.37c.07.04.12.67.2.23-.23.04.08-.3-.2-.23Z"/>
        <path class="cls-3" d="M135.54,190.46c6.54,14.34,7.4,15.05,11.61,20.79-.49.44.34.83.22,1.94,2.03-1.22-.29,1.45.71.67.33-.47,2.53-.23.79.28.48,3.23,1.77-.52,1.1,2.94-.2.07,4.04.79.42-.84,1.54,1.11,1.16-1.53-.49-.92-.89.01,1.85-1.07.54-2.27-1.17,1.07.58-1.87-.63-1.1-1.31.04.83-.4-.24-.49,2.42-.56-6.01-11.17-4.85-15.54,0,0-1.12.66-1.12.66-.09-1.25,2.53-.59-.36-1.2,1.85-1.1-3.07-1.12-.97-2.31.09-.68-3.37-.8-1.3-1.37.14.7,1.65,1.02,1.19.38.62-.36-.44-1.81-2.23-.12-1.27.19.9-2.08-.76-1.13-.72-.37,4-2.09,1.54-1.45.16-.42,1.26-.77.14-.38-3.45-.89-.29-1.07-1.29-1.5-.76-.48-1.65-10.75-5.75-10.62,3.92-.71-2.38-2.91-2.09-4.89-3.91,5.55,4.31,13.78,3.84,18.46ZM147.37,212.14l.05-.06c.11.03.19.04-.05.06ZM146.68,210.29c.18.63-.24-.6-.45-.17.43-.91.41.21.45.17ZM150.67,213.34s-.08.02-.11.02c0,0,.11-.02.11-.02ZM149.79,212.45c.09-.06.13-.11.15-.16-.11.07-.2.14-.15.16ZM149.38,210.09c.16-.13.06-.22-.02-.28,0,.05-.03.14.02.28ZM143.14,196.8c.25.15.59-.19.21-.24-.01,0-.24.27-.21.24ZM138.81,191.18c.28-.08.48-.17.66-.26-.08-.35-.95.26-.66.26Z"/>
        <path class="cls-3" d="M142.17,192.19s-.02-.04-.04-.05c0,.02.02.03.04.05Z"/>
        <path class="cls-3" d="M139.44,190.77s-.07.1-.1.2c.07-.05.11-.11.1-.2Z"/>
        <path class="cls-3" d="M150.25,217.7c-.57.24.37.28.66.1-.48-.06-.35-.77-.66-.1Z"/>
        <path class="cls-3" d="M152.15,216.72c.07-.06.24-.2.25-.24-.14,0-.24.1-.25.24Z"/>
        <path class="cls-3" d="M151.9,213.86l-.07.27c.18,0,.36-.36.07-.27Z"/>
        <path class="cls-3" d="M149.2,216.14c.28.13.47-.3.06-.19.17.07-.1.08-.06.19Z"/>
        <path class="cls-3" d="M151.7,213.32c-.38.1.07-.27-.28-.16.12,0-.07.31.28.16Z"/>
        <path class="cls-3" d="M148.41,214.97c-.3.21.04.18.01.34-.05-.1.24-.41-.01-.34Z"/>
        <path class="cls-3" d="M150.22,212.71c.47-.15.22.23-.02.12.81.36.97-.94.02-.12Z"/>
        <path class="cls-3" d="M148.23,214.69c-.48.57.18.41.12.05.6-.23.21.01-.12-.05Z"/>
        <path class="cls-3" d="M150.64,211.83c-.19.15.25.37.57.32-.1-.17-.36-.31-.57-.32Z"/>
        <path class="cls-3" d="M148.55,213.93c-.19.02-.73.38-.17.1-.19.29.31-.07.17-.1Z"/>
        <path class="cls-3" d="M147.88,213.66c-.23-.22-.48.09-.64.24.26.15.26-.1.64-.24Z"/>
        <path class="cls-3" d="M148.05,213.3c.3-.13-.68-.03-.66-.06.33.05.3.08.66.06Z"/>
        <path class="cls-3" d="M149.19,208.71c-.19.05-.34.31-.17.15.16-.03.29-.36.17-.15Z"/>
        <path class="cls-3" d="M146.2,210.86c.1-.14-.27-.29-.44-.35.15.1.21.47.44.35Z"/>
        <path class="cls-3" d="M145.69,210.49s.04.01.07.02c-.02-.02-.04-.02-.07-.02Z"/>
        <path class="cls-3" d="M142.62,206.09s-.03-.02-.06-.01c.02,0,.04,0,.06.01Z"/>
        <path class="cls-3" d="M142.77,206.16c.22.4.49,0-.15-.07.05.04-.06.17.15.07Z"/>
        <path class="cls-3" d="M142.36,205.02c.14,0,.12.11.28.01.06-.07-.18-.11-.28-.01Z"/>
        <path class="cls-3" d="M144.14,195.27c.04-.15-.05-.18-.3-.03.06.12.18-.02.3.03Z"/>
        <path class="cls-3" d="M143.73,195.12c.08-.03.23-.17.29-.23,0,0-.29.23-.29.23Z"/>
        <path class="cls-3" d="M143.78,194.22s.1-.01.13,0c-.05-.03-.11-.04-.13,0Z"/>
        <path class="cls-3" d="M143.93,194.23s-.02-.01-.03-.01c0,0,.02,0,.03.01Z"/>
        <path class="cls-3" d="M143.87,194.31l.14-.05c-.11-.04-.02-.03-.14.05Z"/>
        <path class="cls-3" d="M143.72,193.98l-.33.32s.85-.42.33-.32Z"/>
        <path class="cls-3" d="M143.39,193.54c-.38-.64-.61-.16-1.31-.31.23.47,1.08-.1,1.31.31Z"/>
        <path class="cls-3" d="M142.65,193.96c.24-.08.19-.26,0-.24,0,.06-.29.29,0,.24Z"/>
        <path class="cls-3" d="M142.85,192.9l.13-.2c-.14.01-.18.06-.13.2Z"/>
        <path class="cls-3" d="M142.75,192.42h.32c-.12,0-.18-.18-.32,0Z"/>
        <path class="cls-3" d="M142.81,191.66c.04-.15-.62.04-.38.2,0-.1.28-.3.38-.2Z"/>
        <path class="cls-3" d="M141.2,190.69c.02.08.14.13.26.06-.07-.02-.24-.24-.26-.06Z"/>
        <path class="cls-3" d="M139.7,191.4c-.35.24.12.17.05.36,0-.18.06-.19-.05-.36Z"/>
        <path class="cls-3" d="M141.63,190.22c.18-.02.12.11.11.17.2-.12.09-.23-.11-.17Z"/>
        <path class="cls-3" d="M141.36,189.96c.95-.72-.28-.4-.7-.13.9.43,1.49.16.7.13Z"/>
        <path class="cls-3" d="M140.31,190.98c.33-.37-.07-.04-.21-.2-.47.25.15.15.21.2Z"/>
        <path class="cls-3" d="M140.51,188.85l-.23-.2c-.04.11.16.17.23.2Z"/>
        <path class="cls-3" d="M140.59,188.62c.37-.13-.16-.08-.21-.15,0,0,.21.15.21.15Z"/>
        <path class="cls-3" d="M140.63,188.28c-.05.05.16.11.18.13,0,0-.18-.13-.18-.13Z"/>
        <path class="cls-3" d="M140.49,187.71c-.13.04-.32.41,0,.27-.12-.01-.14-.16,0-.27Z"/>
        <path class="cls-3" d="M134.55,188.28c.15-.01.26-.1.37-.18-.16.04-.37.04-.37.18Z"/>
        <path class="cls-3" d="M134.97,187.72c-.65-.05-.46.1.03.29.08-.14-.46-.26-.03-.29Z"/>
        <path class="cls-3" d="M133.57,183.82c.82-.02-.13-.71-.35-.45.4.27-.14.18.35.45Z"/>
        <path class="cls-3" d="M131.81,172.76c.13-.03.23-.11.33-.19-.2-.08-.29.21-.33.19Z"/>
      </g>
      <g id="purple">
        <path class="cls-9" d="M204.08,169.66c.24-.27.03-.11-.07-.12l.07.12Z"/>
        <path class="cls-9" d="M204.01,169.54l-.05-.09c0,.06.01.08.05.09Z"/>
        <path class="cls-9" d="M203.45,168.93c.3-.15.29.29.61-.03-.03-.31-.33-.36-.61.03Z"/>
        <path class="cls-9" d="M203.55,169.31l.14-.19c-.04.07-.59.35-.14.19Z"/>
        <path class="cls-9" d="M203.54,169.55c.13-.19-.27.02-.31,0,0,0,.31,0,.31,0Z"/>
        <path class="cls-9" d="M202.99,168.48c.51.06-.16.43-.13.59.69-.06.56-1.44.13-.59Z"/>
        <path class="cls-9" d="M192.17,165.25s0-.03,0-.05c-.02.05-.03.09,0,.05Z"/>
        <path class="cls-9" d="M189.39,164.05c-.01-.06-.03-.11-.06-.15-.02.08-.05.16.06.15Z"/>
        <path class="cls-9" d="M194.25,165.41c.01.07.03.12.05.16.01-.07,0-.13-.05-.16Z"/>
        <path class="cls-9" d="M178.43,154.42s.07-.07.08-.12c-.01.02-.12.1-.08.12Z"/>
        <path class="cls-9" d="M186.1,163.01s-.09-.03-.14-.02c.06.05.11.05.14.02Z"/>
        <path class="cls-9" d="M195.22,165.92s0,0,0,0c-.07-.08-.01.11,0,0Z"/>
        <path class="cls-9" d="M189.93,165.09s-.04-.09-.07-.1c.01.05.04.08.07.1Z"/>
        <path class="cls-9" d="M200.83,166.64c-.02-.06-.08-.06-.14-.03,0,.08.02.11.14.03Z"/>
        <path class="cls-9" d="M199.87,166.15s0,0,0,0c.02-.05.01-.04,0,0Z"/>
        <path class="cls-9" d="M199.29,165.77s.01,0,.02,0c.01-.04.01-.05-.02,0Z"/>
        <path class="cls-9" d="M200.69,166.61c.1-.31.16-.71-.16-.14-.44-.3-.39.73.16.14Z"/>
        <path class="cls-9" d="M192.24,165.15c-.05.11.04.09,0,0h0Z"/>
        <path class="cls-9" d="M193.29,165.18s-.04-.04-.07-.06c.01.04.03.07.07.06Z"/>
        <path class="cls-9" d="M196.25,167.06s0-.02,0-.03c-.04.06-.02.05,0,.03Z"/>
        <path class="cls-9" d="M193.16,165.07s.05.03.07.05c-.01-.03-.03-.06-.07-.05Z"/>
        <path class="cls-9" d="M195.51,166.23s0-.02,0-.02c0,0,0,.02,0,.02Z"/>
        <path class="cls-9" d="M166.97,145.47c.2.52.2-.33-.02-.13-.1.24-.12.57.02.13Z"/>
        <path class="cls-9" d="M178.09,153.25c.31-.75-.27.31-.53.52.18.13.29-.42.53-.52Z"/>
        <path class="cls-9" d="M177.66,153.85c-.04.08-.03.12,0,.2.02-.07.02-.14,0-.2Z"/>
        <path class="cls-9" d="M168.91,146.78s.03.05.05.07c0-.09-.01-.1-.05-.07Z"/>
        <path class="cls-9" d="M188.88,158.58s.1-.04.15-.07c-.06,0-.1.02-.15.07Z"/>
        <path class="cls-9" d="M179.34,154.42c.01.07.03.11.1.11,0,0-.1-.11-.1-.11Z"/>
        <path class="cls-9" d="M172.56,155.11c.28-.38-.06.01-.03-.28-.22.12-.26.26.03.28Z"/>
        <path class="cls-9" d="M166.97,145.3s-.03.04,0,.03c0,0,0-.03,0-.03Z"/>
        <path class="cls-9" d="M169.68,153.59s0-.06-.01-.08c0,.03,0,.06.01.08Z"/>
        <path class="cls-9" d="M178.13,154.35c.08-.01.49.47.3.07-.16.17-.11-.29-.3-.07Z"/>
        <path class="cls-9" d="M173.98,156.23c16.42,8.91,13.95,7.85,23.72,10.61.21,1.92-.48,1.12,1.33-.16-.56,1.58.59,2.13,1.48,1.21.87.06-.75,1.01.57.42-.46,3.02,3.71-1.78.39.35-.76-.98.43,0,.86-.89-1.97-1.1-2.31,1.03-2.13-1.15-1.84-.91-4.65-5.46-11.99-7.25,2.05-2.06-4.98-1.88-3.6-4.09-.21.39-.79,2.2-.73.59.5-.16.7-1.35.27-.56-4.39.51-2.5-1.88-5.5-.33,3.81-2.1.45-2.51-.14-.68.73-.81.15.7-.24.58-.46,1.26-.58-2.38-1.14-.45-.57-.97,1.3-1.95.78-2.8-1.93,1.82-5.25-2.47-10.02-5.61-1.88-1.64-3.86,1.33-2.3-1.25-3.5-.51-4.27.24-3.95-.62-8.09-.33,10.09,9.29,12.35,12.09ZM196.29,166.82v-.08c.11-.03.19-.08,0,.08ZM194.65,165.73c.51.41-.55-.35-.46.13-.19-.98.45-.07.46-.13ZM199.67,165.86s-.05.06-.08.08c0,0,.08-.08.08-.08ZM198.44,165.65c.04-.1.04-.16.03-.21-.04.12-.08.23-.03.21ZM196.71,163.98c.05-.2-.08-.21-.18-.21.03.04.06.13.18.21ZM183.85,156.9c.29-.03.37-.5.02-.32,0,.01-.04.36-.02.32ZM177.05,154.9c.18-.23.29-.42.38-.6-.27-.23-.63.76-.38.6Z"/>
        <path class="cls-9" d="M180.36,153.74s-.04-.02-.06-.02c.02,0,.04.01.06.02Z"/>
        <path class="cls-9" d="M177.32,154.2s0,.12.04.22c.03-.08.02-.15-.04-.22Z"/>
        <path class="cls-9" d="M201.89,169.63c-.32.53.46,0,.59-.3-.43.23-.73-.42-.59.3Z"/>
        <path class="cls-9" d="M202.85,167.71c.02-.09.08-.3.06-.34-.11.09-.14.22-.06.34Z"/>
        <path class="cls-9" d="M200.97,165.56l.1.26c.14-.11.08-.5-.1-.26Z"/>
        <path class="cls-9" d="M200.13,168.98c.3-.06.2-.52-.06-.19.18-.04-.03.13.06.19Z"/>
        <path class="cls-9" d="M200.49,165.23c-.25.3-.1-.26-.32.04.1-.06.12.29.32-.04Z"/>
        <path class="cls-9" d="M198.8,168.5c-.12.35.14.13.21.27-.1-.06-.05-.47-.21-.27Z"/>
        <path class="cls-9" d="M198.93,165.61c.29-.4.31.06.06.11.87-.18.24-1.33-.06-.11Z"/>
        <path class="cls-9" d="M198.49,168.37c-.05.74.39.22.12-.03.35-.54.18-.11-.12.03Z"/>
        <path class="cls-9" d="M198.76,164.65c-.06.23.42.15.65-.08-.18-.08-.47-.04-.65.08Z"/>
        <path class="cls-9" d="M198.3,167.58c-.14.13-.36.74-.07.18.02.35.21-.24.07-.18Z"/>
        <path class="cls-9" d="M197.6,167.75c-.32-.04-.33.36-.38.57.29-.03.15-.24.38-.57Z"/>
        <path class="cls-9" d="M197.53,167.36c.17-.28-.57.38-.57.34.3-.15.29-.11.57-.34Z"/>
        <path class="cls-9" d="M195.75,162.98c-.13.15-.09.45-.05.22.11-.12.02-.46.05-.22Z"/>
        <path class="cls-9" d="M194.6,166.48c0-.17-.39-.07-.56-.02.18,0,.45.26.56.02Z"/>
        <path class="cls-9" d="M193.97,166.48s.04-.01.07-.02c-.03,0-.05,0-.07.02Z"/>
        <path class="cls-9" d="M188.89,164.73s-.03,0-.06.03c.02-.01.04-.01.06-.03Z"/>
        <path class="cls-9" d="M189.06,164.69c.41.19.41-.28-.17.04.06,0,.05.17.17-.04Z"/>
        <path class="cls-9" d="M188.06,164c.12-.08.16.02.23-.15.01-.09-.21.02-.23.15Z"/>
        <path class="cls-9" d="M183.77,155.07c-.05-.15-.15-.11-.26.15.12.06.14-.12.26-.15Z"/>
        <path class="cls-9" d="M183.35,155.19c.05-.07.08-.27.1-.35,0,0-.1.35-.1.35Z"/>
        <path class="cls-9" d="M182.85,154.44s.07-.07.1-.08c-.06.01-.11.03-.1.08Z"/>
        <path class="cls-9" d="M182.98,154.35s-.02,0-.03,0c0,0,.02,0,.03,0Z"/>
        <path class="cls-9" d="M182.99,154.46l.08-.13c-.12.04-.03,0-.08.13Z"/>
        <path class="cls-9" d="M182.67,154.28l-.08.45s.44-.84.08-.45Z"/>
        <path class="cls-9" d="M182.15,154.12c-.68-.3-.59.23-1.24.52.46.24.82-.72,1.24-.52Z"/>
        <path class="cls-9" d="M181.79,154.89c.15-.21,0-.32-.14-.2.03.05-.06.41.14.2Z"/>
        <path class="cls-9" d="M181.33,153.91v-.23c-.12.09-.13.15,0,.23Z"/>
        <path class="cls-9" d="M180.96,153.59l.25-.19c-.09.08-.24-.03-.25.19Z"/>
        <path class="cls-9" d="M180.57,152.94c-.05-.14-.48.4-.19.39-.05-.08.05-.41.19-.39Z"/>
        <path class="cls-9" d="M178.69,153.1c.06.05.19.02.24-.11-.07.03-.33-.05-.24.11Z"/>
        <path class="cls-9" d="M177.9,154.55c-.14.4.19.07.25.26-.1-.15-.06-.19-.25-.26Z"/>
        <path class="cls-9" d="M178.77,152.46c.14-.12.16.02.19.07.09-.22-.07-.24-.19-.07Z"/>
        <path class="cls-9" d="M178.39,152.41c.35-1.14-.47-.16-.64.31.98-.18,1.3-.74.64-.31Z"/>
        <path class="cls-9" d="M178.14,153.85c.05-.49-.08,0-.29-.04-.23.48.21.03.29.04Z"/>
        <path class="cls-9" d="M177.06,152.02l-.3-.03c.03.11.23.04.3.03Z"/>
        <path class="cls-9" d="M176.99,151.78c.23-.32-.18.02-.25,0,0,0,.25,0,.25,0Z"/>
        <path class="cls-9" d="M176.82,151.48c-.01.08.2,0,.22,0,0,0-.22,0-.22,0Z"/>
        <path class="cls-9" d="M176.37,151.11c-.08.11-.02.52.16.22-.1.06-.21-.05-.16-.22Z"/>
        <path class="cls-9" d="M171.9,155.06c.12-.1.15-.23.19-.36-.1.12-.28.25-.19.36Z"/>
        <path class="cls-9" d="M171.91,154.36c-.56.35-.32.35.19.21-.01-.16-.52.06-.19-.21Z"/>
        <path class="cls-9" d="M168.48,152.02c.65-.5-.52-.5-.55-.15.48-.02,0,.23.55.15Z"/>
        <path class="cls-9" d="M160.56,144.11c.09-.1.12-.23.15-.35-.21.05-.11.34-.15.35Z"/>
      </g>
      <g id="blue">
        <path class="cls-7" d="M217.21,99.13c.04-.36-.04-.11-.13-.06l.13.06Z"/>
        <path class="cls-7" d="M217.08,99.07l-.09-.04c.03.06.06.06.09.04Z"/>
        <path class="cls-7" d="M216.26,98.91c.15-.3.41.06.47-.38-.21-.23-.48-.1-.47.38Z"/>
        <path class="cls-7" d="M216.57,99.15v-.24c0,.08-.27.63,0,.24Z"/>
        <path class="cls-7" d="M216.7,99.36c-.01-.23-.21.17-.25.18,0,0,.25-.18.25-.18Z"/>
        <path class="cls-7" d="M215.63,98.81c.45-.25.12.44.25.56.52-.45-.4-1.5-.25-.56Z"/>
        <path class="cls-7" d="M204.98,102.55s-.02-.03-.03-.04c.02.05.03.08.03.04Z"/>
        <path class="cls-7" d="M202.02,103.21s-.09-.07-.13-.08c.03.08.05.16.13.08Z"/>
        <path class="cls-7" d="M206.76,101.46s.09.08.13.1c-.03-.06-.07-.11-.13-.1Z"/>
        <path class="cls-7" d="M187.5,101.87s.01-.09,0-.15c0,.02-.04.15,0,.15Z"/>
        <path class="cls-7" d="M198.75,104.31s-.09.03-.13.06c.08,0,.12-.02.13-.06Z"/>
        <path class="cls-7" d="M207.83,101.31s0,0,0,0c-.1-.02.06.1,0,0Z"/>
        <path class="cls-7" d="M203.07,103.74s-.08-.05-.11-.04c.04.03.08.04.11.04Z"/>
        <path class="cls-7" d="M212.8,98.59c-.06-.04-.1,0-.13.06.04.07.08.08.13-.06Z"/>
        <path class="cls-7" d="M211.73,98.76s0,0,0,0c-.01-.06-.01-.04,0,0Z"/>
        <path class="cls-7" d="M211.04,98.79s0,0,.01-.01c-.01-.04-.02-.05-.01.01Z"/>
        <path class="cls-7" d="M212.67,98.65c-.1-.31-.29-.67-.21-.02-.53.01.11.82.21.02Z"/>
        <path class="cls-7" d="M204.98,102.43c.02.12.09.05,0,0h0Z"/>
        <path class="cls-7" d="M205.85,101.84s-.06,0-.09-.01c.03.02.06.04.09.01Z"/>
        <path class="cls-7" d="M209.34,101.62s-.01-.01-.02-.02c0,.07.01.06.02.02Z"/>
        <path class="cls-7" d="M205.67,101.83s.06,0,.08,0c-.03-.02-.06-.03-.08,0Z"/>
        <path class="cls-7" d="M208.26,101.38s-.01-.01-.02-.02c0,0,.01.01.02.02Z"/>
        <path class="cls-7" d="M172.96,101.36c.47.31-.03-.38-.09-.1.06.25.23.53.09.1Z"/>
        <path class="cls-7" d="M186.53,101.12c-.2-.79-.03.41-.12.74.22,0-.01-.51.12-.74Z"/>
        <path class="cls-7" d="M186.54,101.86c.02.09.04.11.12.16-.03-.07-.07-.13-.12-.16Z"/>
        <path class="cls-7" d="M175.31,101.28s.06.02.08.03c-.05-.07-.07-.07-.08-.03Z"/>
        <path class="cls-7" d="M198.39,99.09s.06-.09.08-.14c-.05.03-.07.08-.08.14Z"/>
        <path class="cls-7" d="M188.23,101.34s.09.07.14.03c0,0-.14-.03-.14-.03Z"/>
        <path class="cls-7" d="M183.16,105.88c0-.47-.04.04-.19-.21-.11.23-.06.36.19.21Z"/>
        <path class="cls-7" d="M172.86,101.23s0,.06.01.03c0,0-.01-.03-.01-.03Z"/>
        <path class="cls-7" d="M179.93,106.34s-.04-.04-.06-.06c.01.03.03.05.06.06Z"/>
        <path class="cls-7" d="M187.21,101.99c.06-.06.68.09.29-.12-.03.24-.26-.17-.29.12Z"/>
        <path class="cls-7" d="M184.96,105.95c23.64-2.96,22.84-4.73,30.39-6.2.9-3.05-2.03,1.76-.68-1.13-.45.76-.41-.06-.65.23-.31.76-.11.13-.86-.07-.68,2.67.33.32-1.29-.05.3,1.56-.43-.86-.47-.16-.15.29-.25.11-.16-.08-.18,2.05-.85-.71-1.08.49-.03-.82-.83.25-.35.07-.12,1.07-.41.06-.22-.18-.3-.6-.05.85-.49.03,1.88-2.52-2.06.82-2.19-.24.37.33.08,1.57-.06.41-8.46-.4-14.87.33-18.52,2.33-1.55,1.78,1.43-1.91.23-1.21.5-.86.24-.24-.07-.17-.97-1.2-1.73,2.91-.92,1.22,1.25,2.99-1.87-.51-1.12,1.41-.91-.09.07-1.8-.8-1.38.16-3.55-.26,1.58-2.25-.02.71-.49-9.99.77-10.53.03-.79-.79-1.3,4.13-1.44.33-2.68,2.29-2.17.56-2.99,2.01-.62-1.6-.24,1.45-.57-.19-5.69,4.32,14.18,1.71,17.09,2.52ZM209.23,101.41l-.04-.07c.07-.09.1-.17.04.07ZM207.27,101.49c.66.03-.65.04-.3.38-.73-.69.32-.32.3-.38ZM211.4,98.64s0,.08-.02.11c0,0,.02-.11.02-.11ZM210.28,99.19c-.03-.1-.06-.15-.1-.19.04.13.07.23.1.19ZM207.91,98.86c-.08-.19-.19-.12-.27-.06.04.02.13.07.27.06ZM193.34,100.69c.22-.19,0-.62-.17-.27,0,.01.18.32.17.27ZM186.66,103.07c0-.29-.01-.51-.05-.71-.35-.03-.06.98.05.71Z"/>
        <path class="cls-7" d="M188.66,100.18s-.05.01-.06.02c.02,0,.04,0,.06-.02Z"/>
        <path class="cls-7" d="M186.47,102.34s.07.1.16.16c-.03-.08-.07-.14-.16-.16Z"/>
        <path class="cls-7" d="M215.42,100.39c.05.62.38-.27.3-.6-.21.44-.84.09-.3.6Z"/>
        <path class="cls-7" d="M215.07,98.27c-.03-.08-.11-.29-.15-.31-.04.14.02.26.15.31Z"/>
        <path class="cls-7" d="M212.28,97.63l.23.15c.05-.18-.23-.45-.23-.15Z"/>
        <path class="cls-7" d="M213.61,100.9c.21-.23-.14-.54-.16-.11.12-.14.05.13.16.11Z"/>
        <path class="cls-7" d="M211.69,97.65c-.02.39-.23-.15-.24.22.04-.11.27.16.24-.22Z"/>
        <path class="cls-7" d="M212.25,101.29c.11.36.19.02.33.09-.11.01-.31-.35-.33-.09Z"/>
        <path class="cls-7" d="M210.66,98.87c0-.49.29-.13.11.05.59-.66-.59-1.22-.11-.05Z"/>
        <path class="cls-7" d="M211.93,101.37c.4.63.44-.05.08-.1-.03-.64.08-.2-.08.1Z"/>
        <path class="cls-7" d="M209.95,98.19c.09.23.43-.12.48-.44-.19.04-.41.24-.48.44Z"/>
        <path class="cls-7" d="M211.3,100.83c-.04.19.14.81.04.19.22.27.03-.32-.04-.19Z"/>
        <path class="cls-7" d="M210.84,101.39c-.28.15-.06.49.03.69.22-.2-.02-.28-.03-.69Z"/>
        <path class="cls-7" d="M210.56,101.11c-.03-.33-.24.64-.26.61.15-.3.17-.26.26-.61Z"/>
        <path class="cls-7" d="M206.54,98.61c-.01.2.19.42.09.21.02-.16-.25-.39-.09-.21Z"/>
        <path class="cls-7" d="M207.66,102.12c-.1-.14-.36.17-.47.31.14-.11.52-.06.47-.31Z"/>
        <path class="cls-7" d="M207.15,102.49s.03-.03.05-.06c-.02.02-.04.03-.05.06Z"/>
        <path class="cls-7" d="M202.02,104.06s-.02.02-.03.06c.01-.02.02-.03.03-.06Z"/>
        <path class="cls-7" d="M202.13,103.93c.44-.08.16-.47-.11.13.06-.03.14.11.11-.13Z"/>
        <path class="cls-7" d="M200.92,103.96c.05-.13.14-.08.1-.26-.04-.08-.16.14-.1.26Z"/>
        <path class="cls-7" d="M192.19,99.26c-.13-.09-.19,0-.12.27.13-.02.04-.18.12-.27Z"/>
        <path class="cls-7" d="M191.93,99.61c0-.09-.09-.27-.13-.34,0,0,.13.34.13.34Z"/>
        <path class="cls-7" d="M191.09,99.29s.02-.1.03-.13c-.04.04-.08.09-.03.13Z"/>
        <path class="cls-7" d="M191.14,99.14s-.01.01-.02.02c0,0,.01-.01.02-.02Z"/>
        <path class="cls-7" d="M191.2,99.22v-.15c-.08.1-.04.01,0,.15Z"/>
        <path class="cls-7" d="M190.84,99.26l.2.41s-.14-.94-.2-.41Z"/>
        <path class="cls-7" d="M190.32,99.44c-.73.16-.34.53-.7,1.15.51-.07.24-1.06.7-1.15Z"/>
        <path class="cls-7" d="M190.49,100.28c0-.26-.19-.26-.23-.08.06.02.19.36.23.08Z"/>
        <path class="cls-7" d="M189.54,99.75l-.15-.18c-.03.14,0,.19.15.18Z"/>
        <path class="cls-7" d="M189.06,99.71l.09-.31c-.03.12-.21.12-.09.31Z"/>
        <path class="cls-7" d="M188.35,99.41c-.13-.09-.16.6.07.43-.09-.03-.19-.36-.07-.43Z"/>
        <path class="cls-7" d="M186.93,100.65c.08,0,.17-.09.13-.23-.04.06-.3.15-.13.23Z"/>
        <path class="cls-7" d="M187.14,102.29c.12.4.2-.06.36.06-.17-.06-.16-.12-.36-.06Z"/>
        <path class="cls-7" d="M186.62,100.09c.04-.18.14-.08.2-.06-.05-.23-.2-.15-.2.06Z"/>
        <path class="cls-7" d="M186.29,100.27c-.39-1.13-.47.14-.34.62.68-.72.61-1.36.34-.62Z"/>
        <path class="cls-7" d="M186.93,101.58c-.25-.42-.06.05-.26.14.09.52.19-.1.26-.14Z"/>
        <path class="cls-7" d="M184.97,100.73l-.26.15c.09.07.21-.1.26-.15Z"/>
        <path class="cls-7" d="M184.78,100.59c0-.39-.13.12-.2.15,0,0,.2-.15.2-.15Z"/>
        <path class="cls-7" d="M184.47,100.44c.03.07.16-.12.18-.13,0,0-.18.13-.18.13Z"/>
        <path class="cls-7" d="M183.88,100.4c0,.14.29.43.26.08-.05.11-.2.09-.26-.08Z"/>
        <path class="cls-7" d="M182.59,106.22c.03-.15-.01-.28-.05-.41,0,.16-.08.36.05.41Z"/>
        <path class="cls-7" d="M182.19,105.65c-.25.61-.05.47.28.06-.1-.12-.39.35-.28-.06Z"/>
        <path class="cls-7" d="M178.04,105.78c.23-.78-.71-.1-.53.2.38-.29.13.19.53-.2Z"/>
        <path class="cls-7" d="M166.98,104.04c.01-.14-.04-.25-.08-.37-.14.17.11.34.08.37Z"/>
      </g>
      <g id="green">
        <path class="cls-4" d="M186.37,34.34c-.18-.31-.1-.07-.14.03l.14-.03Z"/>
        <path class="cls-4" d="M186.23,34.37l-.1.02c.06.03.08.01.1-.02Z"/>
        <path class="cls-4" d="M185.48,34.72c-.05-.33.37-.19.16-.58-.31-.07-.45.2-.16.58Z"/>
        <path class="cls-4" d="M185.86,34.74l-.14-.19c.05.06.15.67.14.19Z"/>
        <path class="cls-4" d="M186.09,34.82c-.14-.18-.07.26-.1.3,0,0,.1-.3.1-.3Z"/>
        <path class="cls-4" d="M184.91,35.01c.21-.46.36.29.53.31.16-.67-1.2-.98-.53-.31Z"/>
        <path class="cls-4" d="M178.49,44.3s-.03,0-.05-.02c.04.03.07.05.05.02Z"/>
        <path class="cls-4" d="M176.48,46.58c-.06,0-.11,0-.16.01.07.05.13.1.16-.01Z"/>
        <path class="cls-4" d="M179.28,42.38c.07.01.12.01.17,0-.06-.03-.12-.05-.17,0Z"/>
        <path class="cls-4" d="M163.94,54.03s-.04-.08-.09-.12c.02.02.05.14.09.12Z"/>
        <path class="cls-4" d="M174.48,49.39s-.06.08-.07.13c.06-.05.08-.09.07-.13Z"/>
        <path class="cls-4" d="M180.06,41.62s0,0,0,0c-.1.04.1.05,0,0Z"/>
        <path class="cls-4" d="M177.64,46.39c-.05,0-.1,0-.12.03.05,0,.09-.01.12-.03Z"/>
        <path class="cls-4" d="M182.48,36.5c-.07,0-.08.05-.07.12.07.03.11.01.07-.12Z"/>
        <path class="cls-4" d="M181.72,37.26s0,0,0,0c-.04-.04-.04-.03,0,0Z"/>
        <path class="cls-4" d="M181.18,37.7s0-.01,0-.02c-.03-.02-.04-.03,0,.02Z"/>
        <path class="cls-4" d="M182.41,36.62c-.27-.19-.63-.38-.18.11-.42.32.57.6.18-.11Z"/>
        <path class="cls-4" d="M178.41,44.21c.09.08.1-.01,0,0h0Z"/>
        <path class="cls-4" d="M178.77,43.22s-.06.03-.08.05c.04,0,.07,0,.08-.05Z"/>
        <path class="cls-4" d="M181.47,40.99s-.02,0-.03,0c.04.05.05.04.03,0Z"/>
        <path class="cls-4" d="M178.62,43.31s.04-.04.07-.05c-.03,0-.07,0-.07.05Z"/>
        <path class="cls-4" d="M180.46,41.43s-.02,0-.02,0c0,0,.02,0,.02,0Z"/>
        <path class="cls-4" d="M151.88,62.16c.56-.03-.25-.29-.13-.03.2.17.5.29.13.03Z"/>
        <path class="cls-4" d="M162.72,53.99c-.62-.52.22.35.33.67.18-.13-.31-.4-.33-.67Z"/>
        <path class="cls-4" d="M163.17,54.58c.07.06.1.07.19.06-.06-.04-.13-.06-.19-.06Z"/>
        <path class="cls-4" d="M153.73,60.72s.06-.02.08-.02c-.08-.03-.1-.02-.08.02Z"/>
        <path class="cls-4" d="M171.12,45.38c0-.05,0-.11-.02-.16-.02.05-.01.1.02.16Z"/>
        <path class="cls-4" d="M164.22,53.17c.07,0,.11,0,.13-.06,0,0-.13.06-.13.06Z"/>
        <path class="cls-4" d="M162.79,59.82c-.27-.39,0,.06-.28-.06.04.25.17.33.28.06Z"/>
        <path class="cls-4" d="M151.73,62.11s.03.05.03.02c0,0-.03-.02-.03-.02Z"/>
        <path class="cls-4" d="M160.45,62.09s-.06,0-.08-.01c.03.01.05.02.08.01Z"/>
        <path class="cls-4" d="M163.78,54.29c.01-.08.6-.32.16-.26.11.21-.31.02-.16.26Z"/>
        <path class="cls-4" d="M164.29,58.82c9.85-8.74,14.64-14.52,14.18-15.34,1.67-.07,3.38-4.72,4.53-3.37-2.02-2.07.1-1.15,1.15-2.24-2.1-1.62,2.9-.01.65-1.91.75-1.4-.82-1.27-.2.56-.79.75-.3-2.07-.63-.5-.82-.5,0,.28-.27.42-.63-.4-.72.36-.19,1.55-.57-1.51-3.35-.76-1.77,0-2.25-.04-1.03,1.44-2.16.67-.42-2.38-1.28,3.86-2.51,1.36.49.71-10.43,10.09-10.4,8.39,1.47,1.15.68,1.24-.37.03.57.68.16,2.31-.57,1.08.38,5.35-1.91-.4-1.19,4.47-.67-2.84-1.48-3.15-1.12.12.36-.91,1.36-.25.89.67-.75.21-.67-1.04-.85-.09-.39.11-.58.3.09.58-.13.79-3.22-3.16-1.86-1.02-.45-.03-1.12-.96-.41-.02.58,3.65-10.15,4.39-9.35,10.45-2.25-3.71-1.41,3.29-2.64.73.14.65.45,1.76-.37.82.33.65.91,1.5.06.6-1.85,6.99,12.04-6.75,15.31-8.01ZM181.26,40.87l-.07-.03c0-.11-.02-.2.07.03ZM179.71,42.09c.55-.36-.5.41-.02.48-.99-.13.07-.45.02-.48ZM181.38,37.36s.04.07.05.1c0,0-.05-.1-.05-.1ZM180.8,38.47c-.08-.07-.14-.09-.19-.09.1.08.19.15.19.09ZM178.68,39.59c-.18-.11-.22.02-.26.11.05-.01.14-.02.26-.11ZM167.97,49.64c.06-.28-.36-.5-.3-.12,0,.01.33.15.3.12ZM163.97,55.49c-.17-.24-.31-.41-.46-.55-.31.18.54.82.46.55Z"/>
        <path class="cls-4" d="M163.89,51.98s-.03.04-.04.05c.01-.01.02-.03.04-.05Z"/>
        <path class="cls-4" d="M163.39,55.02s.12.04.22.04c-.07-.05-.14-.07-.22-.04Z"/>
        <path class="cls-4" d="M185.66,36.42c.4.47.15-.44-.11-.66.09.48-.62.57.11.66Z"/>
        <path class="cls-4" d="M184.13,34.91c-.07-.05-.26-.17-.3-.16.05.13.16.2.3.16Z"/>
        <path class="cls-4" d="M181.5,36.03l.28-.02c-.06-.17-.45-.23-.28.02Z"/>
        <path class="cls-4" d="M184.49,37.89c.03-.31-.43-.35-.2,0,.01-.19.11.07.2,0Z"/>
        <path class="cls-4" d="M181.04,36.39c.21.33-.28.02-.06.32-.03-.12.32-.03.06-.32Z"/>
        <path class="cls-4" d="M183.63,39.01c.3.22.16-.09.32-.12-.08.08-.46-.1-.32.12Z"/>
        <path class="cls-4" d="M180.92,37.98c-.29-.4.15-.28.12-.02.09-.88-1.19-.64-.12.02Z"/>
        <path class="cls-4" d="M183.41,39.26c.69.28.33-.3,0-.12-.4-.5-.05-.21,0,.12Z"/>
        <path class="cls-4" d="M179.95,37.85c.2.13.28-.35.13-.64-.13.15-.19.44-.13.64Z"/>
        <path class="cls-4" d="M182.59,39.2c.08.17.59.57.15.13.34.09-.16-.27-.15-.13Z"/>
        <path class="cls-4" d="M182.54,39.92c-.14.29.24.43.43.54.06-.29-.18-.21-.43-.54Z"/>
        <path class="cls-4" d="M182.15,39.86c-.21-.25.18.66.15.65-.05-.33-.02-.31-.15-.65Z"/>
        <path class="cls-4" d="M177.43,40.2c.1.17.4.22.2.12-.08-.14-.43-.17-.2-.12Z"/>
        <path class="cls-4" d="M180.4,42.38c-.16-.05-.19.35-.19.53.05-.17.38-.35.19-.53Z"/>
        <path class="cls-4" d="M180.21,42.98s0-.04,0-.07c0,.03,0,.05,0,.07Z"/>
        <path class="cls-4" d="M176.98,47.26s0,.03,0,.06c0-.02,0-.04,0-.06Z"/>
        <path class="cls-4" d="M176.99,47.09c.31-.33-.14-.47-.02.17.03-.06.18,0,.02-.17Z"/>
        <path class="cls-4" d="M176.03,47.83c-.04-.13.07-.14-.07-.27-.08-.04-.05.2.07.27Z"/>
        <path class="cls-4" d="M166.21,49.15c-.15,0-.15.11.06.29.09-.09-.07-.17-.06-.29Z"/>
        <path class="cls-4" d="M166.2,49.59c-.06-.07-.23-.16-.31-.2,0,0,.31.2.31.2Z"/>
        <path class="cls-4" d="M165.33,49.83s-.04-.09-.05-.12c0,.06,0,.11.05.12Z"/>
        <path class="cls-4" d="M165.28,49.67s0,.02,0,.03c0,0,0-.02,0-.03Z"/>
        <path class="cls-4" d="M165.38,49.71l-.09-.12c0,.12-.02.03.09.12Z"/>
        <path class="cls-4" d="M165.11,49.95l.4.21s-.66-.68-.4-.21Z"/>
        <path class="cls-4" d="M164.8,50.4c-.5.56.03.63.11,1.34.37-.36-.43-1-.11-1.34Z"/>
        <path class="cls-4" d="M165.43,50.98c-.15-.2-.31-.1-.23.07.06-.02.37.18.23-.07Z"/>
        <path class="cls-4" d="M164.35,51.11l-.23-.06c.05.13.11.15.23.06Z"/>
        <path class="cls-4" d="M163.93,51.36l-.11-.3c.05.11-.1.22.11.3Z"/>
        <path class="cls-4" d="M163.19,51.54c-.15,0,.23.58.31.3-.09.03-.37-.18-.31-.3Z"/>
        <path class="cls-4" d="M162.77,53.37c.07-.04.08-.17-.03-.26,0,.07-.15.3.03.26Z"/>
        <path class="cls-4" d="M163.9,54.57c.33.26.13-.16.33-.16-.18.05-.2,0-.33.16Z"/>
        <path class="cls-4" d="M162.18,53.1c-.07-.17.07-.15.13-.16-.18-.16-.25-.01-.13.16Z"/>
        <path class="cls-4" d="M162.02,53.44c-.98-.68-.3.39.09.71.13-.99-.31-1.46-.09-.71Z"/>
        <path class="cls-4" d="M163.31,54.12c-.45-.2-.02.08-.13.27.38.37.09-.19.13-.27Z"/>
        <path class="cls-4" d="M161.23,54.59l-.12.28c.11,0,.11-.21.12-.28Z"/>
        <path class="cls-4" d="M160.99,54.59c-.24-.31-.03.18-.08.24,0,0,.08-.24.08-.24Z"/>
        <path class="cls-4" d="M160.65,54.65c.07.04.06-.19.07-.21,0,0-.07.21-.07.21Z"/>
        <path class="cls-4" d="M160.15,54.96c.08.11.49.18.26-.08.02.12-.11.19-.26.08Z"/>
        <path class="cls-4" d="M162.53,60.43c-.06-.14-.17-.22-.28-.3.09.13.15.34.28.3Z"/>
        <path class="cls-4" d="M161.87,60.21c.16.64.24.41.26-.12-.15-.04-.11.52-.26.12Z"/>
        <path class="cls-4" d="M158.59,62.74c-.27-.77-.64.34-.32.47.13-.46.22.07.32-.47Z"/>
        <path class="cls-4" d="M148.62,67.84c-.07-.12-.18-.18-.28-.25-.02.22.29.21.28.25Z"/>
      </g>
    </g>
  </g>
</svg>